<svg viewBox="0 0 200 140" xmlns="http://www.w3.org/2000/svg">
  <rect width="200" height="140" fill="#111"/>
  <!-- playing field border -->
  <rect x="55" y="8" width="90" height="118" rx="2" fill="#0a0a0a" stroke="#333" stroke-width="1.5"/>
  <!-- stacked blocks at bottom -->
  <!-- row 5 -->
  <rect x="57" y="99" width="18" height="18" rx="1" fill="#5b82f8" stroke="#3a5fd6" stroke-width="0.5"/>
  <rect x="77" y="99" width="18" height="18" rx="1" fill="#5b82f8" stroke="#3a5fd6" stroke-width="0.5"/>
  <rect x="97" y="99" width="18" height="18" rx="1" fill="#6fcf97" stroke="#4aab75" stroke-width="0.5"/>
  <rect x="117" y="99" width="18" height="18" rx="1" fill="#6fcf97" stroke="#4aab75" stroke-width="0.5"/>
  <rect x="137" y="99" width="8" height="18" rx="1" fill="#f2c94c" stroke="#d4a93a" stroke-width="0.5"/>
  <!-- row 4 -->
  <rect x="57" y="79" width="18" height="18" rx="1" fill="#eb5757" stroke="#c43333" stroke-width="0.5"/>
  <rect x="77" y="79" width="18" height="18" rx="1" fill="#5b82f8" stroke="#3a5fd6" stroke-width="0.5"/>
  <rect x="97" y="79" width="18" height="18" rx="1" fill="#5b82f8" stroke="#3a5fd6" stroke-width="0.5"/>
  <rect x="117" y="79" width="18" height="18" rx="1" fill="#f2c94c" stroke="#d4a93a" stroke-width="0.5"/>
  <rect x="137" y="79" width="8" height="18" rx="1" fill="#f2c94c" stroke="#d4a93a" stroke-width="0.5"/>
  <!-- falling piece (L-shape, orange) -->
  <rect x="77" y="40" width="18" height="18" rx="1" fill="#C15F3C" stroke="#a04530" stroke-width="0.5" opacity="0.9"/>
  <rect x="77" y="59" width="18" height="18" rx="1" fill="#C15F3C" stroke="#a04530" stroke-width="0.5" opacity="0.9"/>
  <rect x="97" y="59" width="18" height="18" rx="1" fill="#C15F3C" stroke="#a04530" stroke-width="0.5" opacity="0.9"/>
  <rect x="117" y="59" width="18" height="18" rx="1" fill="#C15F3C" stroke="#a04530" stroke-width="0.5" opacity="0.9"/>
  <!-- ghost -->
  <rect x="77" y="79" width="18" height="18" rx="1" fill="none" stroke="#C15F3C" stroke-width="1" opacity="0.3"/>
  <!-- label -->
  <text x="100" y="135" font-family="monospace" font-size="13" font-weight="bold" fill="#5b82f8" text-anchor="middle" letter-spacing="3">TETRIS</text>
</svg>
