<svg viewBox="0 0 200 140" xmlns="http://www.w3.org/2000/svg" font-family="Arial Black, sans-serif">
  <rect width="200" height="140" fill="#121213"/>
  <!-- row 1: CRANE (all gray - wrong word) -->
  <rect x="12"  y="8" width="30" height="30" rx="2" fill="#3a3a3c"/><text x="27"  y="30" font-size="17" font-weight="900" fill="#fff" text-anchor="middle">C</text>
  <rect x="46"  y="8" width="30" height="30" rx="2" fill="#3a3a3c"/><text x="61"  y="30" font-size="17" font-weight="900" fill="#fff" text-anchor="middle">R</text>
  <rect x="80"  y="8" width="30" height="30" rx="2" fill="#3a3a3c"/><text x="95"  y="30" font-size="17" font-weight="900" fill="#fff" text-anchor="middle">A</text>
  <rect x="114" y="8" width="30" height="30" rx="2" fill="#b59f3b"/><text x="129" y="30" font-size="17" font-weight="900" fill="#fff" text-anchor="middle">N</text>
  <rect x="148" y="8" width="30" height="30" rx="2" fill="#3a3a3c"/><text x="163" y="30" font-size="17" font-weight="900" fill="#fff" text-anchor="middle">E</text>
  <!-- row 2: POINT (some right) -->
  <rect x="12"  y="43" width="30" height="30" rx="2" fill="#3a3a3c"/><text x="27"  y="65" font-size="17" font-weight="900" fill="#fff" text-anchor="middle">P</text>
  <rect x="46"  y="43" width="30" height="30" rx="2" fill="#538d4e"/><text x="61"  y="65" font-size="17" font-weight="900" fill="#fff" text-anchor="middle">O</text>
  <rect x="80"  y="43" width="30" height="30" rx="2" fill="#3a3a3c"/><text x="95"  y="65" font-size="17" font-weight="900" fill="#fff" text-anchor="middle">I</text>
  <rect x="114" y="43" width="30" height="30" rx="2" fill="#538d4e"/><text x="129" y="65" font-size="17" font-weight="900" fill="#fff" text-anchor="middle">N</text>
  <rect x="148" y="43" width="30" height="30" rx="2" fill="#b59f3b"/><text x="163" y="65" font-size="17" font-weight="900" fill="#fff" text-anchor="middle">T</text>
  <!-- row 3: BONUS (correct!) -->
  <rect x="12"  y="78" width="30" height="30" rx="2" fill="#538d4e"/><text x="27"  y="100" font-size="17" font-weight="900" fill="#fff" text-anchor="middle">B</text>
  <rect x="46"  y="78" width="30" height="30" rx="2" fill="#538d4e"/><text x="61"  y="100" font-size="17" font-weight="900" fill="#fff" text-anchor="middle">O</text>
  <rect x="80"  y="78" width="30" height="30" rx="2" fill="#538d4e"/><text x="95"  y="100" font-size="17" font-weight="900" fill="#fff" text-anchor="middle">N</text>
  <rect x="114" y="78" width="30" height="30" rx="2" fill="#538d4e"/><text x="129" y="100" font-size="17" font-weight="900" fill="#fff" text-anchor="middle">U</text>
  <rect x="148" y="78" width="30" height="30" rx="2" fill="#538d4e"/><text x="163" y="100" font-size="17" font-weight="900" fill="#fff" text-anchor="middle">S</text>
  <!-- label -->
  <text x="100" y="132" font-size="14" font-weight="900" fill="#fff" text-anchor="middle" letter-spacing="6">WORDLE</text>
</svg>
